<mxfile host="app.diagrams.net" modified="2023-07-17T09:32:58.641Z" agent="Mozilla/5.0 (Windows NT 10.0; Win64; x64) AppleWebKit/537.36 (KHTML, like Gecko) Chrome/114.0.0.0 Safari/537.36" etag="1iIrx7BUkdqMZWosPM5_" version="21.6.2" type="github">
  <diagram name="第 1 页" id="jo37r0LTQQVGfIlVSVQu">
    <mxGraphModel dx="1050" dy="549" grid="1" gridSize="10" guides="1" tooltips="1" connect="1" arrows="1" fold="1" page="1" pageScale="1" pageWidth="827" pageHeight="1169" math="0" shadow="0">
      <root>
        <mxCell id="0" />
        <mxCell id="1" parent="0" />
        <mxCell id="7EBY24ZoCq5tD4-30C8f-9" value="远程存储" style="shape=trapezoid;perimeter=trapezoidPerimeter;whiteSpace=wrap;html=1;fixedSize=1;fontSize=14;fillColor=#ffe6cc;strokeColor=#d79b00;" vertex="1" parent="1">
          <mxGeometry x="110" y="740" width="350" height="50" as="geometry" />
        </mxCell>
        <mxCell id="7EBY24ZoCq5tD4-30C8f-10" value="HHD 机械硬盘" style="shape=trapezoid;perimeter=trapezoidPerimeter;whiteSpace=wrap;html=1;fixedSize=1;fontSize=14;fillColor=#e1d5e7;strokeColor=#9673a6;" vertex="1" parent="1">
          <mxGeometry x="130" y="690" width="310" height="50" as="geometry" />
        </mxCell>
        <mxCell id="7EBY24ZoCq5tD4-30C8f-11" value="SSD 固态硬盘" style="shape=trapezoid;perimeter=trapezoidPerimeter;whiteSpace=wrap;html=1;fixedSize=1;fontSize=14;fillColor=#e1d5e7;strokeColor=#9673a6;" vertex="1" parent="1">
          <mxGeometry x="150" y="640" width="270" height="50" as="geometry" />
        </mxCell>
        <mxCell id="7EBY24ZoCq5tD4-30C8f-12" value="内存" style="shape=trapezoid;perimeter=trapezoidPerimeter;whiteSpace=wrap;html=1;fixedSize=1;fontSize=14;fillColor=#fff2cc;strokeColor=#d6b656;" vertex="1" parent="1">
          <mxGeometry x="170" y="590" width="230" height="50" as="geometry" />
        </mxCell>
        <mxCell id="7EBY24ZoCq5tD4-30C8f-13" value="L3 Cache" style="shape=trapezoid;perimeter=trapezoidPerimeter;whiteSpace=wrap;html=1;fixedSize=1;fontSize=14;fillColor=#f8cecc;strokeColor=#b85450;" vertex="1" parent="1">
          <mxGeometry x="190" y="540" width="190" height="50" as="geometry" />
        </mxCell>
        <mxCell id="7EBY24ZoCq5tD4-30C8f-14" value="L2 Cache" style="shape=trapezoid;perimeter=trapezoidPerimeter;whiteSpace=wrap;html=1;fixedSize=1;fontSize=14;fillColor=#f8cecc;strokeColor=#b85450;" vertex="1" parent="1">
          <mxGeometry x="210" y="500" width="150" height="40" as="geometry" />
        </mxCell>
        <mxCell id="7EBY24ZoCq5tD4-30C8f-15" value="L1 Cache" style="shape=trapezoid;perimeter=trapezoidPerimeter;whiteSpace=wrap;html=1;fixedSize=1;fontSize=14;fillColor=#f8cecc;strokeColor=#b85450;" vertex="1" parent="1">
          <mxGeometry x="230" y="460" width="110" height="40" as="geometry" />
        </mxCell>
        <mxCell id="7EBY24ZoCq5tD4-30C8f-17" value="" style="triangle;whiteSpace=wrap;html=1;rotation=-90;fontSize=14;fillColor=#f8cecc;strokeColor=#b85450;" vertex="1" parent="1">
          <mxGeometry x="252.60000000000002" y="392.66" width="63.75" height="70.93" as="geometry" />
        </mxCell>
        <mxCell id="7EBY24ZoCq5tD4-30C8f-18" value="寄存器" style="text;html=1;strokeColor=none;fillColor=none;align=center;verticalAlign=middle;whiteSpace=wrap;rounded=0;fontSize=14;" vertex="1" parent="1">
          <mxGeometry x="254" y="431" width="60" height="30" as="geometry" />
        </mxCell>
        <mxCell id="7EBY24ZoCq5tD4-30C8f-22" value="" style="shape=curlyBracket;whiteSpace=wrap;html=1;rounded=1;labelPosition=left;verticalLabelPosition=middle;align=right;verticalAlign=middle;fontSize=14;dashed=1;" vertex="1" parent="1">
          <mxGeometry x="170" y="400" width="20" height="190" as="geometry" />
        </mxCell>
        <mxCell id="7EBY24ZoCq5tD4-30C8f-23" value="&lt;font style=&quot;font-size: 14px;&quot;&gt;集成在CPU内部&lt;/font&gt;" style="text;html=1;strokeColor=none;fillColor=none;align=center;verticalAlign=middle;whiteSpace=wrap;rounded=0;fontSize=14;" vertex="1" parent="1">
          <mxGeometry x="60" y="480" width="110" height="30" as="geometry" />
        </mxCell>
        <mxCell id="7EBY24ZoCq5tD4-30C8f-24" value="" style="shape=curlyBracket;whiteSpace=wrap;html=1;rounded=1;labelPosition=left;verticalLabelPosition=middle;align=right;verticalAlign=middle;fontSize=14;dashed=1;" vertex="1" parent="1">
          <mxGeometry x="110" y="640" width="20" height="100" as="geometry" />
        </mxCell>
        <mxCell id="7EBY24ZoCq5tD4-30C8f-26" value="&lt;font style=&quot;font-size: 14px;&quot;&gt;硬盘&lt;/font&gt;" style="text;html=1;strokeColor=none;fillColor=none;align=center;verticalAlign=middle;whiteSpace=wrap;rounded=0;fontSize=14;" vertex="1" parent="1">
          <mxGeometry x="40" y="675" width="110" height="30" as="geometry" />
        </mxCell>
        <mxCell id="7EBY24ZoCq5tD4-30C8f-27" style="edgeStyle=orthogonalEdgeStyle;rounded=0;orthogonalLoop=1;jettySize=auto;html=1;exitX=0.5;exitY=1;exitDx=0;exitDy=0;fontSize=14;" edge="1" parent="1" source="7EBY24ZoCq5tD4-30C8f-26" target="7EBY24ZoCq5tD4-30C8f-26">
          <mxGeometry relative="1" as="geometry" />
        </mxCell>
        <mxCell id="7EBY24ZoCq5tD4-30C8f-28" value="" style="shape=curlyBracket;whiteSpace=wrap;html=1;rounded=1;flipH=1;labelPosition=right;verticalLabelPosition=middle;align=left;verticalAlign=middle;fontSize=14;dashed=1;" vertex="1" parent="1">
          <mxGeometry x="380" y="460" width="20" height="130" as="geometry" />
        </mxCell>
        <mxCell id="7EBY24ZoCq5tD4-30C8f-29" value="Cache使用SRAM芯片" style="text;html=1;strokeColor=none;fillColor=none;align=center;verticalAlign=middle;whiteSpace=wrap;rounded=0;fontSize=14;" vertex="1" parent="1">
          <mxGeometry x="400" y="510" width="140" height="30" as="geometry" />
        </mxCell>
        <mxCell id="7EBY24ZoCq5tD4-30C8f-30" value="内存使用DRAM芯片" style="text;html=1;strokeColor=none;fillColor=none;align=center;verticalAlign=middle;whiteSpace=wrap;rounded=0;fontSize=14;" vertex="1" parent="1">
          <mxGeometry x="390" y="600" width="130" height="30" as="geometry" />
        </mxCell>
        <mxCell id="7EBY24ZoCq5tD4-30C8f-31" value="" style="shape=flexArrow;endArrow=classic;html=1;rounded=0;fontSize=14;fillColor=#dae8fc;strokeColor=#6c8ebf;" edge="1" parent="1">
          <mxGeometry width="50" height="50" relative="1" as="geometry">
            <mxPoint x="580" y="400" as="sourcePoint" />
            <mxPoint x="580" y="790" as="targetPoint" />
          </mxGeometry>
        </mxCell>
        <mxCell id="7EBY24ZoCq5tD4-30C8f-32" value="存储容量越来越大" style="text;html=1;strokeColor=none;fillColor=none;align=center;verticalAlign=middle;whiteSpace=wrap;rounded=0;fontSize=14;" vertex="1" parent="1">
          <mxGeometry x="580" y="445" width="140" height="30" as="geometry" />
        </mxCell>
        <mxCell id="7EBY24ZoCq5tD4-30C8f-33" value="价格成本越来越低" style="text;html=1;strokeColor=none;fillColor=none;align=center;verticalAlign=middle;whiteSpace=wrap;rounded=0;fontSize=14;" vertex="1" parent="1">
          <mxGeometry x="580" y="570" width="140" height="30" as="geometry" />
        </mxCell>
        <mxCell id="7EBY24ZoCq5tD4-30C8f-34" value="访问速度越来越慢" style="text;html=1;strokeColor=none;fillColor=none;align=center;verticalAlign=middle;whiteSpace=wrap;rounded=0;fontSize=14;" vertex="1" parent="1">
          <mxGeometry x="580" y="700" width="140" height="30" as="geometry" />
        </mxCell>
      </root>
    </mxGraphModel>
  </diagram>
</mxfile>
